<svg width="364" height="76" viewBox="0 0 364 76" fill="none" xmlns="http://www.w3.org/2000/svg">
<path d="M350.53 63.908V0H363.966V63.908H350.53Z" fill="#0059FF"/>
<path d="M313.689 63.908V17.5704H326.523V30.6621L324.714 26.8724C326.092 23.5995 328.303 21.1304 331.346 19.4653C334.389 17.7427 338.093 16.8814 342.457 16.8814V29.284C341.882 29.2266 341.366 29.1979 340.906 29.1979C340.447 29.1405 339.959 29.1117 339.442 29.1117C335.767 29.1117 332.781 30.174 330.485 32.2985C328.245 34.3656 327.125 37.6098 327.125 42.0312V63.908H313.689Z" fill="#0059FF"/>
<path d="M274.111 64.597C270.264 64.597 266.819 63.8506 263.775 62.3577C260.79 60.8648 258.464 58.5967 256.799 55.5535C255.134 52.4528 254.301 48.5196 254.301 43.7537V17.5704H267.737V41.7728C267.737 45.6199 268.541 48.4621 270.149 50.2996C271.814 52.0796 274.14 52.9696 277.125 52.9696C279.193 52.9696 281.03 52.5389 282.638 51.6776C284.245 50.7589 285.509 49.3809 286.427 47.5434C287.346 45.6486 287.805 43.2944 287.805 40.4808V17.5704H301.242V63.908H288.495V51.1609L290.82 54.8644C289.27 58.0799 286.973 60.5203 283.93 62.1854C280.944 63.7932 277.671 64.597 274.111 64.597Z" fill="#0059FF"/>
<path d="M209.98 52.1944L210.152 44.3566L238.317 18.6901H245.81L225.914 37.7247L222.469 40.6531L209.98 52.1944ZM205.157 63.908V0H211.272V63.908H205.157ZM240.212 63.908L221.349 40.3947L225.311 35.6576L247.705 63.908H240.212Z" fill="#F1F1F1"/>
<path d="M176.074 64.3387C171.595 64.3387 167.576 63.3625 164.016 61.4103C160.513 59.4006 157.757 56.6731 155.748 53.228C153.738 49.7254 152.733 45.7347 152.733 41.256C152.733 36.7198 153.738 32.7292 155.748 29.284C157.757 25.8388 160.513 23.1401 164.016 21.1878C167.576 19.2356 171.595 18.2594 176.074 18.2594C179.921 18.2594 183.395 19.0059 186.496 20.4988C189.596 21.9917 192.037 24.2311 193.817 27.2169L189.252 30.3176C187.702 28.0208 185.778 26.3269 183.481 25.2359C181.184 24.145 178.687 23.5995 175.988 23.5995C172.772 23.5995 169.873 24.3459 167.289 25.8388C164.705 27.2743 162.667 29.3127 161.174 31.954C159.681 34.5953 158.934 37.696 158.934 41.256C158.934 44.816 159.681 47.9167 161.174 50.558C162.667 53.1993 164.705 55.2664 167.289 56.7593C169.873 58.1948 172.772 58.9125 175.988 58.9125C178.687 58.9125 181.184 58.367 183.481 57.276C185.778 56.1851 187.702 54.5199 189.252 52.2805L193.817 55.3812C192.037 58.3096 189.596 60.549 186.496 62.0993C183.395 63.5922 179.921 64.3387 176.074 64.3387Z" fill="#F1F1F1"/>
<path d="M134.167 63.908V18.6901H140.283V63.908H134.167ZM137.268 8.69907C136.005 8.69907 134.943 8.26842 134.081 7.40713C133.22 6.54584 132.789 5.51228 132.789 4.30647C132.789 3.10066 133.22 2.09582 134.081 1.29194C134.943 0.430649 136.005 0 137.268 0C138.531 0 139.594 0.401938 140.455 1.20581C141.316 2.00969 141.747 3.01453 141.747 4.22034C141.747 5.48357 141.316 6.54584 140.455 7.40713C139.651 8.26842 138.589 8.69907 137.268 8.69907Z" fill="#F1F1F1"/>
<path d="M94.9894 64.3387C91.1423 64.3387 87.7832 63.6209 84.9122 62.1854C82.0413 60.7499 79.8019 58.5967 78.1941 55.7257C76.6438 52.8547 75.8687 49.266 75.8687 44.9595V18.6901H81.9838V44.2705C81.9838 49.0938 83.1609 52.7399 85.5151 55.2089C87.9268 57.6206 91.2858 58.8264 95.5923 58.8264C98.7504 58.8264 101.478 58.1948 103.775 56.9315C106.129 55.6109 107.909 53.716 109.115 51.247C110.378 48.778 111.009 45.8208 111.009 42.3757V18.6901H117.125V63.908H111.268V51.5054L112.215 53.7447C110.78 57.0751 108.54 59.6877 105.497 61.5825C102.511 63.4199 99.0087 64.3387 94.9894 64.3387Z" fill="#F1F1F1"/>
<path d="M31.6956 64.4248C27.1595 64.4248 22.9391 63.6783 19.0346 62.1854C15.1875 60.6351 11.8284 58.4819 8.95745 55.7257C6.1439 52.9122 3.93324 49.6679 2.32549 45.9931C0.775164 42.2608 0 38.184 0 33.7627C0 29.3414 0.775164 25.2933 2.32549 21.6185C3.93324 17.8862 6.1439 14.642 8.95745 11.8859C11.8284 9.0723 15.1875 6.91906 19.0346 5.42616C22.8817 3.87583 27.102 3.10066 31.6956 3.10066C36.2318 3.10066 40.4234 3.87583 44.2705 5.42616C48.1176 6.91906 51.4479 9.04359 54.2615 11.7997C57.1325 14.5559 59.3431 17.8001 60.8935 21.5324C62.5012 25.2646 63.3051 29.3414 63.3051 33.7627C63.3051 38.184 62.5012 42.2608 60.8935 45.9931C59.3431 49.7254 57.1325 52.9696 54.2615 55.7257C51.4479 58.4819 48.1176 60.6351 44.2705 62.1854C40.4234 63.6783 36.2318 64.4248 31.6956 64.4248ZM51.4192 75.88C49.5818 75.88 47.8018 75.6503 46.0792 75.1909C44.3566 74.7316 42.6053 73.9851 40.8253 72.9516C39.1027 71.9755 37.3227 70.6835 35.4853 69.0758C33.6479 67.468 31.6382 65.5158 29.4562 63.219L36.4327 61.4964C38.2127 63.6209 39.9353 65.3722 41.6005 66.7503C43.3231 68.1283 44.9882 69.1332 46.596 69.7648C48.2612 70.4538 49.8976 70.7984 51.5054 70.7984C55.9841 70.7984 59.8025 68.9609 62.9606 65.2861L66.0612 68.9896C62.2715 73.5832 57.3909 75.88 51.4192 75.88ZM31.6956 58.7402C35.313 58.7402 38.6434 58.1373 41.6866 56.9315C44.7873 55.6683 47.4573 53.8883 49.6966 51.5915C51.9934 49.2947 53.7734 46.6534 55.0367 43.6676C56.2999 40.6244 56.9315 37.3227 56.9315 33.7627C56.9315 30.1453 56.2999 26.8437 55.0367 23.8578C53.7734 20.8146 51.9934 18.1733 49.6966 15.9339C47.4573 13.6372 44.7873 11.8859 41.6866 10.68C38.6434 9.41682 35.313 8.7852 31.6956 8.7852C28.0782 8.7852 24.7191 9.41682 21.6185 10.68C18.5178 11.8859 15.8191 13.6372 13.5223 15.9339C11.2829 18.1733 9.50294 20.8146 8.18229 23.8578C6.91906 26.8437 6.28744 30.1453 6.28744 33.7627C6.28744 37.3227 6.91906 40.6244 8.18229 43.6676C9.50294 46.6534 11.2829 49.2947 13.5223 51.5915C15.8191 53.8883 18.5178 55.6683 21.6185 56.9315C24.7191 58.1373 28.0782 58.7402 31.6956 58.7402Z" fill="#F1F1F1"/>
</svg>
